<?xml version="1.0" encoding="utf-8" ?>
<svg baseProfile="full" height="200mm" version="1.1" viewBox="0,0,200,200" width="200mm" xmlns="http://www.w3.org/2000/svg" xmlns:ev="http://www.w3.org/2001/xml-events" xmlns:xlink="http://www.w3.org/1999/xlink"><defs /><rect fill="#1a1a1a" height="200" width="200" x="0" y="0" /><text alignment-baseline="middle" fill="#e1ed5e" style="dominant-baseline: central; font-size:9.0px; font-family:Arial;" text-anchor="middle" x="100.0" y="100.0">2019</text><line stroke="#e1ed5e" stroke-width="0.3" x1="100.0" x2="100.0" y1="15.0" y2="10.0" /><path d="M 100.0 14.0 a86.0,86.0 0 0,1 42.46469731375804,11.215312516191453" fill="none" id="id1" stroke="none" /><text fill="#e1ed5e" style="font-size:6.75px; font-family:Arial;" text-anchor="middle"><textPath startOffset="22.20632615414155" xlink:href="#id1">January</textPath></text><line stroke="#e1ed5e" stroke-width="0.3" x1="143.23703022742887" x2="145.7803849466894" y1="26.81831364943548" y2="22.513508569990506" /><path d="M 143.74570117128098 25.957352633546492 a86.0,86.0 0 0,1 28.547481713284135,27.462654790039103" fill="none" id="id2" stroke="none" /><text fill="#e1ed5e" style="font-size:6.75px; font-family:Arial;" text-anchor="middle"><textPath startOffset="19.985693538727396" xlink:href="#id2">February</textPath></text><line stroke="#e1ed5e" stroke-width="0.3" x1="172.23445277983987" x2="176.4835382374775" y1="55.19839476539836" y2="52.563006222186495" /><path d="M 173.08426987136738 54.67131705675599 a86.0,86.0 0 0,1 12.851231095245387,41.99856678651699" fill="none" id="id3" stroke="none" /><text fill="#e1ed5e" style="font-size:6.75px; font-family:Arial;" text-anchor="middle"><textPath startOffset="22.20632615414155" xlink:href="#id3">March</textPath></text><path d="M 118.73160827565052 90.50648371742162 l 29.258693775052556 -14.828832723429885 a53.80191216014341,53.80191216014341 0 0,0 0.41155897488034815,0.8296777796897236 l -29.509612762886313 14.322995355241211" fill="#b4ff20" stroke="none" /><path d="M 118.89224826269711 90.83032412892265 l 28.5105306169355 -13.838073745088634 a52.69136540185241,52.69136540185241 0 0,0 0.3890173552784379,0.8193697620109777 l -28.744506166055693 13.345261567437115" fill="#c3ff1e" stroke="none" /><path d="M 119.04729006885535 91.15688171328212 l 29.120102564186688 -13.519640356479055 a53.105467582910066,53.105467582910066 0 0,0 0.37780161016499286,0.8324357684973949 l -29.348506491315028 13.016382579139597" fill="#bdff1f" stroke="none" /><path d="M 119.196687751892 91.48605970444005 l 29.090409404719527 -12.901913707523166 a52.82312518673439,52.82312518673439 0 0,0 0.3614844678322291,0.834355990954703 l -29.308184582394436 12.39925857198186" fill="#c1ff1e" stroke="none" /><path d="M 119.34039704204932 91.81776055985345 l 30.18650557145673 -12.770845185337784 a53.77681505826113,53.77681505826113 0 0,0 0.3533349631605623,0.8556286395711798 l -30.401862221503492 12.2493419753133" fill="#b4ff20" stroke="none" /><path d="M 119.47837535516314 92.15188598940014 l 29.45907859212302 -11.869481064133982 a52.76038243202868,52.76038243202868 0 0,0 0.33215537467725753,0.8452991986350011 l -29.659027516681977 11.360632860603197" fill="#c2ff1e" stroke="none" /><path d="M 119.61058180528143 92.48833698450437 l 30.23908356649461 -11.582818291895121 a53.38153570361518,53.38153570361518 0 0,0 0.3212943415082678,0.8609090977455729 l -30.433982496504502 11.060586057120215" fill="#b9ff1f" stroke="none" /><path d="M 119.7369772167798 92.82701384747503 l 29.484579051060358 -10.715545492269149 a52.3713773528533,52.3713773528533 0 0,0 0.30062896160158936,0.8499185575790404 l -29.664661093471757 10.206429308263493" fill="#c7ff1e" stroke="none" /><path d="M 119.85752413597 93.16781622104841 l 29.99097236549995 -10.318700030654393 a52.71646250373469,52.71646250373469 0 0,0 0.28783867873605856,0.8606010126222641 l -30.164148338007777 9.800925915109815" fill="#c2ff1e" stroke="none" /><path d="M 119.97218684219823 93.5106431181261 l 30.18801710029304 -9.808681346100999 a52.74155960561697,52.74155960561697 0 0,0 0.2731121611725303,0.8658401855451212 l -30.35238474523378 9.287590994129458" fill="#c2ff1e" stroke="none" /><path d="M 120.08093135843002 93.85539295169968 l 30.35238474523378 -9.287590994129458 a52.74155960561697,52.74155960561697 0 0,0 0.25816768117090844,0.8704130788791962 l -30.50775832351639 8.763748528503733" fill="#c2ff1e" stroke="none" /><path d="M 120.78858239683441 97.02765380044208 l 18.912827427057305 -2.70415123323987 a40.105168807887665,40.105168807887665 0 0,0 0.09182937974971948,0.6842355415365 l -18.956572805864862 2.3781973496387057" fill="#ff7e0b" stroke="none" /><path d="M 120.83666639777658 97.38593545837742 l 32.88918690751528 -4.1261138253337535 a54.1469973110248,54.1469973110248 0 0,0 0.10806102586765093,0.9258008778776579 l -32.95533828638652 3.5593692091312428" fill="#afff20" stroke="none" /><path d="M 120.91429891909075 98.10471618934814 l 25.069664554344822 -2.271849013545049 a46.17239318792949,46.17239318792949 0 0,0 0.0649173210553744,0.7921557464200865 l -25.10505635921969 1.839979349917194" fill="#ffdd14" stroke="none" /><path d="M 120.96714384426684 98.82574320788733 l 35.16240764800413 -1.9692570582994944 a56.217508216313114,56.217508216313114 0 0,0 0.04579422474689919,0.9666437062019486 l -35.19109548098452 1.363702245474546" fill="#93ff23" stroke="none" /><path d="M 120.98425023603335 99.18683210126433 l 19.73033626913563 -0.7645770473024045 a40.745144905885866,40.745144905885866 0 0,0 0.02112598034210964,0.7010684381900376 l -19.740573943933384 0.4248384616873678" fill="#ff880c" stroke="none" /><line stroke="#e1ed5e" stroke-width="0.3" x1="184.98032266829074" x2="189.97916517819016" y1="98.17113171792111" y2="98.06355123074" /><path d="M 185.9800911702706 98.14961562048488 a86.0,86.0 0 0,1 -9.607161424134198,41.387399972396054" fill="none" id="id4" stroke="none" /><text fill="#e1ed5e" style="font-size:6.75px; font-family:Arial;" text-anchor="middle"><textPath startOffset="21.466115282336823" xlink:href="#id4">April</textPath></text><path d="M 120.99980553446 99.90962569577887 l 33.73646679378291 -0.14518752130176768 a54.73677920525844,54.73677920525844 0 0,0 -0.004054959798737889,0.9422298512551702 l -33.733967536694664 -0.4355518081570873" fill="#a7ff21" stroke="none" /><path d="M 120.99824983174949 100.27111621757518 l 34.166856463611516 0.44114099818179225 a55.169704212727815,55.169704212727815 0 0,0 -0.020433642907298908,0.949471093444135 l -34.154200758019215 -1.0292019074160421" fill="#a1ff22" stroke="none" /><path d="M 120.9904718944345 100.63252640178507 l 30.968314973025873 0.9331984977635728 a51.982372273677925,51.982372273677925 0 0,0 -0.034649635293630576,0.8941531247352731 l -30.94766320488104 -1.466128869512852" fill="#cdff1d" stroke="none" /><path d="M 120.92983693683757 101.71520430193887 l 33.77414081143105 2.7677975604337735 a54.887361816552136,54.887361816552136 0 0,0 -0.08527249231196443,0.9409748470203481 l -33.72149372284201 -3.348753796002692" fill="#a5ff21" stroke="none" /><path d="M 120.49622156327973 104.57218783832717 l 37.918316080020354 8.458615803681452 a59.85031371377353,59.85031371377353 0 0,0 -0.23295860818298672,1.0035795869590796 l -37.76709690590681 -9.110064047989097" fill="#64ff29" stroke="none" /><path d="M 120.41448212921028 104.9243191809786 l 30.96633575440712 7.469605163378657 a52.85449656408724,52.85449656408724 0 0,0 -0.2209536565217829,0.8826000241757803 l -30.833170783590276 -8.001533026951833" fill="#c1ff1e" stroke="none" /><path d="M 119.26925614724726 108.34839909993367 l 30.19061226058102 13.080073164043075 a53.90230056767254,53.90230056767254 0 0,0 -0.3761839381755705,0.848195470926597 l -29.96098723767418 -13.59781697146236" fill="#b2ff20" stroke="none" /><path d="M 119.12269723197855 108.67885076344098 l 23.779105431578934 10.792165185969935 a47.11353450851509,47.11353450851509 0 0,0 -0.3415178972661208,0.7355991678527819 l -23.589812917472983 -11.199884421101547" fill="#ffeb16" stroke="none" /><path d="M 118.81262510543309 109.33194174019688 l 30.183387157506928 14.972371420632577 a54.69285927696445,54.69285927696445 0 0,0 -0.4256180864873298,0.8397848630378291 l -29.921190401233332 -15.489710495373101" fill="#a7ff21" stroke="none" /><path d="M 118.64920377521936 109.65438752849418 l 17.81898825011996 9.224598540819958 a41.06513295488497,41.06513295488497 0 0,0 -0.3303738672447191,0.6249428521844191 l -17.657561874650348 -9.529956408090511" fill="#ff8d0d" stroke="none" /><line stroke="#e1ed5e" stroke-width="0.3" x1="174.80103733775053" x2="179.2010983576182" y1="140.37084112569926" y2="142.7455964860345" /><path d="M 175.68104954172406 140.8457921977663 a86.0,86.0 0 0,1 -30.038265399797805,32.042727171017184" fill="none" id="id5" stroke="none" /><text fill="#e1ed5e" style="font-size:6.75px; font-family:Arial;" text-anchor="middle"><textPath startOffset="22.206326154141568" xlink:href="#id5">May</textPath></text><path d="M 118.12598468904814 110.60418214915192 l 23.69321273217377 13.861158321643169 a48.44995518374664,48.44995518374664 0 0,0 -0.42732658436160426,0.7162239351692572 l -23.45110527211394 -14.26694435069853" fill="#ffff18" stroke="none" /><path d="M 117.75023020441432 111.22182372390056 l 18.179799564007265 11.493400575300594 a42.50821631311622,42.50821631311622 0 0,0 -0.39632866764878516,0.615110893496312 l -17.979266032981432 -11.804633068718358" fill="#ffa40f" stroke="none" /><path d="M 117.35343817320211 111.8261652097733 l 18.851837824249426 12.847307051907883 a43.81326561099492,43.81326561099492 0 0,0 -0.4300774679673746,0.6195586693002815 l -18.627899449119916 -13.169906983395183" fill="#ffb911" stroke="none" /><path d="M 116.498646956653 112.99209946851258 l 29.857276551074758 23.511546603161232 a59.00328652524649,59.00328652524649 0 0,0 -0.635218391107306,0.7925326121990243 l -29.4481402479126 -24.02200704893851" fill="#6fff27" stroke="none" /><path d="M 116.27256486870786 113.27417163493432 l 29.277975990247597 23.883197366469822 a58.78368688377652,58.78368688377652 0 0,0 -0.6463518305937831,0.7785724177176828 l -28.86252815976027 -24.383631041301275" fill="#72ff27" stroke="none" /><path d="M 115.32070863581623 114.36230785411682 l 8.53693504804221 8.0028993570146 a32.70152375261428,32.70152375261428 0 0,0 -0.3885150445810687,0.4073564709805715 l -8.397913452082177 -8.148662944577678" fill="#ff0000" stroke="none" /><path d="M 114.55890576462653 115.13401014063108 l 22.014527061480393 22.88414261181174 a52.75410815655811,52.75410815655811 0 0,0 -0.6598387524475917,0.6239187254975478 l -21.617352474641994 -23.25969597405521" fill="#c2ff1e" stroke="none" /><path d="M 114.29624159901734 115.38237550388516 l 21.390970399724775 23.01611488600444 a52.42157155661786,52.42157155661786 0 0,0 -0.6662543364817304,0.6086075396382131 l -20.991616513776183 -23.380915192229235" fill="#c7ff1e" stroke="none" /><path d="M 114.0293411484842 115.62618273729858 l 15.370658497607279 17.120170928495327 a44.007768150582606,44.007768150582606 0 0,0 -0.5680305756537776,0.501220939231899 l -15.073685569046914 -17.382215009499514" fill="#ffbc11" stroke="none" /><path d="M 112.92097659922987 116.55440617244103 l 10.125999886399756 12.973470986051042 a37.457424559306844,37.457424559306844 0 0,0 -0.5116885243184471,0.39234094092936733 l -9.901182633587814 -13.145851268807782" fill="#ff5207" stroke="none" /><path d="M 112.63410532772338 116.77436683061366 l 11.592272919461752 15.391120566720813 a40.2682999701225,40.2682999701225 0 0,0 -0.5572653898576798,0.41225161308280917 l -11.325622559185508 -15.588382128543392" fill="#ff800b" stroke="none" /><path d="M 111.1453310114006 117.79835938074945 l 17.638726730621148 28.167884565231507 a54.23483716761279,54.23483716761279 0 0,0 -0.79549799694805,0.48865984246653704 l -17.15124953374079 -28.467332874526424" fill="#aeff20" stroke="none" /><line stroke="#e1ed5e" stroke-width="0.3" x1="143.8653032363475" x2="146.44561519142675" y1="172.8068346515853" y2="177.08958963109032" /><path d="M 144.38136562736335 173.6633856474863 a86.0,86.0 0 0,1 -40.68145358897372,12.25698825130547" fill="none" id="id6" stroke="none" /><text fill="#e1ed5e" style="font-size:6.75px; font-family:Arial;" text-anchor="middle"><textPath startOffset="21.466115282336833" xlink:href="#id6">June</textPath></text><path d="M 110.8373102113329 117.98757091392108 l 9.869172848563702 16.38067407996159 a40.12399163429937,40.12399163429937 0 0,0 -0.5946607304372562,0.3513360412851724 l -9.585744247098063 -16.54812869354051" fill="#ff7e0b" stroke="none" /><path d="M 110.5260780823613 118.17145234162733 l 31.578234247083873 54.514357024881974 a84.0,84.0 0 0,0 -1.2574049323152037,0.7139873368214862 l -30.635180547847472 -55.049847527498095" fill="#4dd2ff" stroke="none" /><path d="M 108.92500713936063 119.00905698771935 l 10.100964160112957 21.513686247230627 a44.76695548252167,44.76695548252167 0 0,0 -0.700351314669693,0.3214969385020554 l -9.729144849675844 -21.684370256066757" fill="#ffc712" stroke="none" /><path d="M 106.2309692047433 120.05430185196036 l 5.61476041873493 18.071041047359554 a39.92321481924111,39.92321481924111 0 0,0 -0.6580201785589231,0.19825608197797076 l -5.30286526573576 -18.16501249844325" fill="#ff7b0b" stroke="none" /><path d="M 105.88484417918355 120.15858648285463 l 8.910782880221763 30.52396662536817 a52.798028084852106,52.798028084852106 0 0,0 -0.8746089693456058,0.24717323096993196 l -8.38404274277155 -30.67282864967662" fill="#c1ff1e" stroke="none" /><path d="M 105.53697534728816 120.25689768951611 l 8.554436665917857 31.29621092097037 a53.44427845832089,53.44427845832089 0 0,0 -0.8894898142012743,0.23492234437767306 l -8.014456408905085 -31.438824614651626" fill="#b8ff1f" stroke="none" /><path d="M 105.18746579009965 120.34920634021253 l 6.235188190490264 24.459174516484914 a46.24141021810577,46.24141021810577 0 0,0 -0.7729950079003688,0.18998336606680588 l -5.813239897846684 -24.56287914086575" fill="#ffde14" stroke="none" /><path d="M 104.13013068566511 120.58985236759428 l 8.106013885310452 40.410738034875045 a62.215715566178666,62.215715566178666 0 0,0 -1.0518378051708932,0.20158721875607707 l -7.409208465567853 -40.54428245197959" fill="#47ff2c" stroke="none" /><line stroke="#e1ed5e" stroke-width="0.3" x1="102.19456741930631" x2="102.32365962044197" y1="184.97166512339345" y2="189.96999836594603" /><path d="M 102.22038585953345 185.97133177190398 a86.0,86.0 0 0,1 -42.740103519485714,-10.115201625700543" fill="none" id="id7" stroke="none" /><text fill="#e1ed5e" style="font-size:6.75px; font-family:Arial;" text-anchor="middle"><textPath startOffset="22.20632615414155" xlink:href="#id7">July</textPath></text><path d="M 98.01472825383883 120.90594882070398 l -5.406558699210971 56.933888108968254 a78.19002091425156,78.19002091425156 0 0,0 -1.338789656737704,-0.13877102190149676 l 6.385780952554269 -56.832387718611" fill="#44ffe9" stroke="none" /><path d="M 97.2962882734958 120.8252237178851 l -4.4348304088760155 34.15909118947988 a55.44577233343293,55.44577233343293 0 0,0 -0.9454069434365026,-0.13102478779260546 l 5.022165943499349 -34.07769183619467" fill="#9dff22" stroke="none" /><path d="M 93.76903079525671 120.05430185196036 l -7.467110092687585 24.03280691013236 a46.16611891245892,46.16611891245892 0 0,0 -0.7568575867406216,-0.24232189849951571 l 7.879689024519147 -23.90071216497314" fill="#ffdd14" stroke="none" /><path d="M 93.42475214034765 119.94407469862007 l -5.987856431496972 18.16239608048819 a40.12399163429937,40.12399163429937 0 0,0 -0.654078893894963,-0.221899073434868 l 6.299605058329161 -18.056634020155197" fill="#ff7e0b" stroke="none" /><path d="M 91.07499286063937 119.00905698771935 l -8.346361621212663 17.776620367959833 a40.63848222288617,40.63848222288617 0 0,0 -0.6306460261017126,-0.302748416824719 l 8.651120315314618 -17.630317674635553" fill="#ff860c" stroke="none" /><line stroke="#e1ed5e" stroke-width="0.3" x1="58.666819895761336" x2="56.23545636021788" y1="174.27360380694188" y2="178.64263932499728" /><path d="M 58.180547188652646 175.14741091055294 a86.0,86.0 0 0,1 -31.652253787137756,-30.449443065178592" fill="none" id="id8" stroke="none" /><text fill="#e1ed5e" style="font-size:6.75px; font-family:Arial;" text-anchor="middle"><textPath startOffset="22.20632615414155" xlink:href="#id8">August</textPath></text><path d="M 89.7882731507175 118.34994917583269 l -8.506212863997488 15.285228055638349 a38.492680011951,38.492680011951 0 0,0 -0.5762010202982951,-0.32718197724825987 l 8.768062651216992 -15.136542912595457" fill="#ff6309" stroke="none" /><path d="M 88.24862548938628 117.40417183066458 l -10.859576146199046 16.083389146174348 a40.40633403047505,40.40633403047505 0 0,0 -0.5730832575526102,-0.39417189019681764 l 11.134816288374546 -15.894076466612427" fill="#ff820c" stroke="none" /><path d="M 86.79598089348748 116.32954008644616 l -15.878750195313087 19.637406288600477 a46.2539587690469,46.2539587690469 0 0,0 -0.6148029316906346,-0.5059409572108944 l 16.21442325554841 -19.3611702125324" fill="#ffde14" stroke="none" /><path d="M 85.18274418774928 114.88116024355367 l -13.458158849489756 13.516201715089075 a40.07379743053481,40.07379743053481 0 0,0 -0.48462459748141895,-0.49092215863325217 l 13.688824072026708 -13.28253906247516" fill="#ff7d0b" stroke="none" /><path d="M 83.95833913139862 113.55231037782056 l -15.226876779069798 12.863964765561976 a40.93337317000299,40.93337317000299 0 0,0 -0.4500799810859183,-0.542150331218949 l 15.446052760049252 -12.599953177229265" fill="#ff8b0c" stroke="none" /><path d="M 83.28015986056508 112.70617746262583 l -10.350615108726968 7.865909681075809 a34.00029877502241,34.00029877502241 0 0,0 -0.35010388281426175,-0.46902136418854495 l 10.484480258236314 -7.6865754373779565" fill="#ff1702" stroke="none" /><line stroke="#e1ed5e" stroke-width="0.3" x1="26.63291911575756" x2="22.317208475507996" y1="142.92168965132927" y2="145.44649492493687" /><path d="M 25.769776987707644 143.4266507060508 a86.0,86.0 0 0,1 -11.730757126820373,-40.83630448921669" fill="none" id="id9" stroke="none" /><text fill="#e1ed5e" style="font-size:6.75px; font-family:Arial;" text-anchor="middle"><textPath startOffset="21.46611528233685" xlink:href="#id9">September</textPath></text><path d="M 81.18737489456691 109.33194174019688 l -11.820421451068352 5.863481768638792 a34.194801314610096,34.194801314610096 0 0,0 -0.25702562039133003,-0.5295489064801906 l 11.9196003280744 -5.659143906193317" fill="#ff1a02" stroke="none" /><path d="M 79.58551787078972 104.9243191809786 l -42.83564624841465 10.332684077685307 a65.06423662981774,65.06423662981774 0 0,0 -0.2532530419181783,-1.0910074763356095 l 43.007159856263385 -9.593807944001124" fill="#31ff3b" stroke="none" /><line stroke="#e1ed5e" stroke-width="0.3" x1="15.007084014347285" x2="10.007500721073583" y1="101.09737516637583" y2="101.16192664675087" /><path d="M 14.007167355692545 101.11028546245083 a86.0,86.0 0 0,1 10.666146001902534,-42.60595125391555" fill="none" id="id10" stroke="none" /><text fill="#e1ed5e" style="font-size:6.75px; font-family:Arial;" text-anchor="middle"><textPath startOffset="22.20632615414155" xlink:href="#id10">October</textPath></text><path d="M 79.12142395522702 97.74499172005258 l -18.857465008469898 -2.0367164715509603 a39.967134747535106,39.967134747535106 0 0,0 0.07976230993939008,-0.6833547615388798 l 18.81961234552692 2.3610149714147015" fill="#ff7b0b" stroke="none" /><line stroke="#e1ed5e" stroke-width="0.3" x1="26.266209847984243" x2="21.928928074336255" y1="57.711370442889674" y2="55.22380399835377" /><path d="M 25.398753493254645 57.213857153982495 a86.0,86.0 0 0,1 29.58750427330803,-30.492523968695096" fill="none" id="id11" stroke="none" /><text fill="#e1ed5e" style="font-size:6.75px; font-family:Arial;" text-anchor="middle"><textPath startOffset="21.46611528233685" xlink:href="#id11">November</textPath></text><line stroke="#e1ed5e" stroke-width="0.3" x1="56.762969772571076" x2="54.21961505331055" y1="26.818313649435495" y2="22.513508569990535" /><path d="M 56.25429882871897 25.957352633546506 a86.0,86.0 0 0,1 42.265352541879196,-11.944610805530505" fill="none" id="id12" stroke="none" /><text fill="#e1ed5e" style="font-size:6.75px; font-family:Arial;" text-anchor="middle"><textPath startOffset="22.20632615414155" xlink:href="#id12">December</textPath></text><path d="M 93.25333710446033 80.11325718540243 l -4.640220491643956 -13.677705993189015 a35.443382133253664,35.443382133253664 0 0,0 0.5794439011510696,-0.19103354396760916 l 4.404093768250477 13.755553261415859" fill="#ff3004" stroke="none" /><path d="M 98.91598698831166 79.02799685794201 l -1.9500574673963196 -37.727048377153025 a58.777412608305944,58.777412608305944 0 0,0 1.0108572100916677,-0.04352963786117875 l 1.3003594249153279 37.7550257415384" fill="#72ff27" stroke="none" /></svg>