<?xml version="1.0" encoding="utf-8" ?>
<svg baseProfile="full" height="200mm" version="1.1" viewBox="0,0,200,200" width="200mm" xmlns="http://www.w3.org/2000/svg" xmlns:ev="http://www.w3.org/2001/xml-events" xmlns:xlink="http://www.w3.org/1999/xlink"><defs /><rect fill="#1a1a1a" height="200" width="200" x="0" y="0" /><text alignment-baseline="middle" fill="#e1ed5e" style="dominant-baseline: central; font-size:9.0px; font-family:Arial;" text-anchor="middle" x="100.0" y="100.0">2021</text><line stroke="#e1ed5e" stroke-width="0.3" x1="100.0" x2="100.0" y1="15.0" y2="10.0" /><path d="M 100.0 14.0 a86.0,86.0 0 0,1 42.46469731375804,11.215312516191453" fill="none" id="id25" stroke="none" /><text fill="#e1ed5e" style="font-size:6.75px; font-family:Arial;" text-anchor="middle"><textPath startOffset="22.20632615414155" xlink:href="#id25">January</textPath></text><path d="M 100.36148047927253 79.00311137660856 l 0.5304614554067912 -30.812286518468678 a51.81685236768802,51.81685236768802 0 0,0 0.8916776330343905,0.023029402556014104 l -1.0607657236360497 30.798590323770302" fill="#b4ff20" stroke="none" /><path d="M 100.72285384407766 79.0124445844662 l 0.869193634437593 -25.236428800990556 a46.25139275766017,46.25139275766017 0 0,0 0.7954340242471737,0.03425306232400041 l -1.3034684910740981 25.217728012142363" fill="#ffff18" stroke="none" /><path d="M 101.08401301168833 79.027996857942 l 0.43643062657209186 -8.44346366055598 a29.454735376044567,29.454735376044567 0 0,0 0.5061136364315869,0.03053015668594237 l -0.5817063118432907 8.434700234489732" fill="#ff0000" stroke="none" /><path d="M 101.44485096284872 79.0497635885617 l 1.7313201201266213 -25.104018859507992 a46.16364902506964,46.16364902506964 0 0,0 0.7922777144508901,0.06149599894762231 l -2.1631880239398527 25.070497598371905" fill="#fffe18" stroke="none" /><path d="M 101.80526077348638 79.07773832637324 l 2.7100462666045972 -31.408369344909257 a52.52506963788301,52.52506963788301 0 0,0 0.9001167981194866,0.08547693591319035 l -3.2502881918143283 31.35706686448089" fill="#abff21" stroke="none" /><path d="M 103.2404852339499 79.25152402106235 l 3.1885833116791193 -20.41615359208837 a41.66364902506964,41.66364902506964 0 0,0 0.707628893948708,0.11676483069986722 l -3.5395414117667023 20.358242498448877" fill="#ffbe11" stroke="none" /><path d="M 104.307194497241 79.44645832069477 l 6.7423105266700345 -32.17369462036089 a53.87256267409471,53.87256267409471 0 0,0 0.9059755941357914,0.19801117435354024 l -7.295128844959354 32.05286994791148" fill="#9aff22" stroke="none" /><path d="M 104.66035177308747 79.52364482259891 l 7.014172500501434 -30.818421953730713 a52.60654596100279,52.60654596100279 0 0,0 0.8812255609427672,0.20855761901917894 l -7.543621748406725 30.693118422570667" fill="#aaff21" stroke="none" /><path d="M 105.01212808612495 79.60689891045804 l 7.510712829417047 -30.559220226001845 a52.46866295264624,52.46866295264624 0 0,0 0.8752050597568242,0.22310925698556347 l -8.035626777858896 30.425407972847413" fill="#acff20" stroke="none" /><path d="M 105.36241919743992 79.69619591428918 l 7.867584393538006 -29.789146702752017 a51.81058495821727,51.81058495821727 0 0,0 0.860307635023077,0.23515457496099462 l -8.379189917784794 29.64930558696473" fill="#b5ff20" stroke="none" /><path d="M 105.71112130821622 79.79150937346287 l 5.1253507084578676 -18.135773372661298 a39.84610027855153,39.84610027855153 0 0,0 0.6584279324871741,0.19221316877572306 l -5.436768858668469 18.044861874966873" fill="#ffa40f" stroke="none" /><path d="M 106.0581310904928 79.89281104454417 l 5.447617083860357 -18.080867585392475 a39.88370473537604,39.88370473537604 0 0,0 0.6556399173875525,0.2037105138238957 l -5.758042373958628 17.98441693668606" fill="#ffa40f" stroke="none" /><path d="M 106.74666289553966 80.11325718540242 l 8.346075716875802 -24.601238251046645 a46.978412256267404,46.978412256267404 0 0,0 0.7635513106475492,0.26638805956193495 l -8.768309031586625 24.453929338312502" fill="#f5ff19" stroke="none" /><path d="M 107.4271985657038 80.35727306442388 l 11.428960148657623 -30.226193816105386 a53.31476323119777,53.31476323119777 0 0,0 0.855617750617638,0.3319663944203388 l -11.947561064274929 30.0249847177945" fill="#a1ff22" stroke="none" /><path d="M 107.76421540070413 80.48803036053334 l 11.644005885954522 -29.262131149518495 a52.49373259052925,52.49373259052925 0 0,0 0.8366904306459001,0.34130703470604884 l -12.145980186188808 29.057363228628866" fill="#acff21" stroke="none" /><path d="M 108.09893153111575 80.62456947434976 l 11.45226947704728 -27.397768552685285 a50.6949860724234,50.6949860724234 0 0,0 0.80222701287905,0.3434717403954355 l -11.922180247716643 27.19657728432706" fill="#c3ff1e" stroke="none" /><path d="M 108.76106565485865 80.91482961587045 l 9.85227677701176 -21.462272783744584 a44.61559888579387,44.61559888579387 0 0,0 0.6951998129213873,0.3264056337783623 l -10.220254801232745 21.28950216732622" fill="#ffe915" stroke="none" /><path d="M 109.08828744355905 81.06846463323043 l 13.640568310880965 -28.414253290733427 a52.518802228412255,52.518802228412255 0 0,0 0.8116123973960162,0.3982546786082828 l -14.127651975287412 28.175243451990312" fill="#abff21" stroke="none" /><path d="M 109.41281617654863 81.2277094730956 l 11.649905098730743 -23.23379093167704 a46.990947075208915,46.990947075208915 0 0,0 0.7199449714152528,0.3687837771732914 l -12.04811055773475 23.029814629191247" fill="#f4ff19" stroke="none" /><path d="M 110.05341064243156 81.56283822128135 l 4.9506946557934945 -9.079183327164477 a31.341225626740947,31.341225626740947 0 0,0 0.4714256283069369,0.2623478517511123 l -5.1062443731724665 8.992620077853184" fill="#ff1f03" stroke="none" /><path d="M 110.36928655335952 81.73862282372117 l 14.421271987262845 -25.39733912896718 a50.20612813370474,50.20612813370474 0 0,0 0.7478400443089167,0.4331972233985605 l -14.85630876403709 25.14533774817857" fill="#c9ff1d" stroke="none" /><line stroke="#e1ed5e" stroke-width="0.3" x1="143.23703022742887" x2="145.7803849466894" y1="26.81831364943548" y2="22.513508569990506" /><path d="M 143.74570117128098 25.957352633546492 a86.0,86.0 0 0,1 28.547481713284135,27.462654790039103" fill="none" id="id26" stroke="none" /><text fill="#e1ed5e" style="font-size:6.75px; font-family:Arial;" text-anchor="middle"><textPath startOffset="19.985693538727396" xlink:href="#id26">February</textPath></text><path d="M 111.2981086023043 82.29822771554956 l 16.343593034829556 -25.60699072703878 a51.378133704735376,51.378133704735376 0 0,0 0.7413937460094706,0.4822231156132837 l -16.78195380662331 25.32186868726597" fill="#baff1f" stroke="none" /><path d="M 111.60114157652 82.49532879139004 l 12.62368549184002 -19.047562045341802 a43.85097493036211,43.85097493036211 0 0,0 0.6255974397539481,0.42240618392866236 l -12.94968762600051 18.82744394911447" fill="#ffde14" stroke="none" /><path d="M 112.48926042617603 83.11751280151076 l 18.897896048760188 -25.545426809492785 a52.77576601671309,52.77576601671309 0 0,0 0.7256764488415967,0.5465644564169603 l -19.33481865136017 25.216345763569976" fill="#a8ff21" stroke="none" /><path d="M 114.68862486808459 84.99185889309783 l 14.90927571916704 -15.23359169456058 a42.31545961002786,42.31545961002786 0 0,0 0.5161764691216556,0.5139598433229056 l -15.169287988456018 14.974696000587556" fill="#ffc812" stroke="none" /><path d="M 114.94478906791727 85.2469230424477 l 13.398571337054358 -13.226694144594243 a39.82729805013928,39.82729805013928 0 0,0 0.4774263904460733,0.4920298623192022 l -13.624261991203541 12.994100086724925" fill="#ffa30f" stroke="none" /><path d="M 115.19652480421416 85.50635884689758 l 18.59503134618326 -17.734956842733748 a46.69637883008356,46.69637883008356 0 0,0 0.5497557520211115,0.5864411056448188 l -18.89755442017483 17.412246320210876" fill="#f8ff18" stroke="none" /><path d="M 115.9244219780498 86.31012108654704 l 21.14437526273685 -18.177359118370145 a48.88370473537604,48.88370473537604 0 0,0 0.5430499756282277,0.6427998843641599 l -21.454135851852193 17.81070028437688" fill="#dbff1b" stroke="none" /><path d="M 116.15771136456269 86.58626213691792 l 18.54150423699072 -15.392704561346171 a45.09818941504179,45.09818941504179 0 0,0 0.4907144898076564,0.6015579417697898 l -18.803717218874784 15.07126244996828" fill="#ffef16" stroke="none" /><path d="M 116.60985879189232 87.15038557335679 l 25.053589236238693 -19.381800033502223 a52.67548746518106,52.67548746518106 0 0,0 0.5486379270980105,0.7219432014460425 l -25.38350310356082 18.947672056175147" fill="#a9ff21" stroke="none" /><path d="M 117.45458315368197 88.32363383020206 l 36.944260960777704 -24.714123222107133 a65.44846796657382,65.44846796657382 0 0,0 0.6183426788208245,0.9417783218968792 l -37.36420027495645 24.07452683623258" fill="#33ff51" stroke="none" /><line stroke="#e1ed5e" stroke-width="0.3" x1="172.23445277983987" x2="176.4835382374775" y1="55.19839476539836" y2="52.563006222186495" /><path d="M 173.08426987136738 54.67131705675599 a86.0,86.0 0 0,1 12.851231095245387,41.99856678651699" fill="none" id="id27" stroke="none" /><text fill="#e1ed5e" style="font-size:6.75px; font-family:Arial;" text-anchor="middle"><textPath startOffset="22.20632615414155" xlink:href="#id27">March</textPath></text><path d="M 117.84615892207809 88.93136811851018 l 18.73740163784442 -11.621402793199715 a43.04874651810585,43.04874651810585 0 0,0 0.3851513987777626,0.6330876308490728 l -18.934668834908408 11.29714738914356" fill="#ffd213" stroke="none" /><path d="M 118.03404312379186 89.2402003453031 l 16.388876237150683 -9.778230187590149 a40.08426183844011,40.08426183844011 0 0,0 0.3484282954574045,0.5955769016281149 l -16.554764207078414 9.49467387360814" fill="#ffa70f" stroke="none" /><path d="M 118.21658344932153 89.55222093294921 l 27.199830978001085 -15.599951852105587 a52.3558495821727,52.3558495821727 0 0,0 0.4416399374821266,0.7856281692721976 l -27.464328556775644 15.129440172898596" fill="#aeff20" stroke="none" /><path d="M 118.3937258080291 89.86733742301442 l 23.62711775102186 -13.015612733191197 a47.97493036211699,47.97493036211699 0 0,0 0.3922336658920786,0.7267494129281156 l -23.847659516132406 12.606982336930622" fill="#e7ff1a" stroke="none" /><path d="M 118.73160827565052 90.50648371742162 l 56.19482482695156 -28.480548847735175 a84.0,84.0 0 0,0 0.6425599481863675,1.2953616460042006 l -56.676744788091334 27.509027613232025" fill="#4dd2ff" stroke="none" /><path d="M 118.89224826269711 90.83032412892265 l 34.754820421189315 -16.86884661838064 a59.63231197771588,59.63231197771588 0 0,0 0.4402619692579498,0.9273039880577414 l -35.040040584289024 16.26810021468236" fill="#55ff2b" stroke="none" /><path d="M 119.97218684219823 93.5106431181261 l 24.206242767459308 -7.865085046942865 a46.451949860724234,46.451949860724234 0 0,0 0.24054261026799995,0.7625858087453811 l -24.338040861495514 7.447249071771065" fill="#fcff18" stroke="none" /><path d="M 120.18372546131832 94.20196356495316 l 34.87174294535567 -10.017359606790546 a57.282033426183844,57.282033426183844 0 0,0 0.264078983072114,0.9500326075960762 l -35.039008698994145 9.415615695775518" fill="#71ff27" stroke="none" /><path d="M 120.45610955862082 95.25157060432595 l 30.65363890584019 -7.11555829556688 a52.46866295264624,52.46866295264624 0 0,0 0.1966465848034049,0.8815280811532687 l -30.77157987764563 6.586852044863647" fill="#acff20" stroke="none" /><path d="M 120.6074358757038 95.95851677861258 l 24.877759087909425 -4.8789692490585415 a46.3516713091922,46.3516713091922 0 0,0 0.1468118029856697,0.7842745220193115 l -24.958056614804953 4.450016649576667" fill="#fdff18" stroke="none" /><path d="M 120.67395015179393 96.31383870115 l 13.672942758568057 -2.4378830396691953 a34.88857938718663,34.88857938718663 0 0,0 0.10032649349505328,0.5921326437649729 l -13.712881113583332 2.2021646075883847" fill="#ff5808" stroke="none" /><path d="M 120.78858239683441 97.02765380044208 l 25.61760546653282 -3.6627986842343674 a46.878133704735376,46.878133704735376 0 0,0 0.10733753453454174,0.79978930784033 l -25.676859000125194 3.221291034329373" fill="#f6ff19" stroke="none" /><path d="M 120.87857604477298 97.74499172005257 l 20.145374956053843 -2.1758182756874374 a41.2625348189415,41.2625348189415 0 0,0 0.07019125454141478,0.7068163542635003 l -20.179843336277486 1.828726390719502" fill="#ffb811" stroke="none" /><path d="M 120.91429891909075 98.10471618934814 l 51.02073598228647 -4.6235723840832685 a72.22980501392757,72.22980501392757 0 0,0 0.10155344174540276,1.239209214729268 l -51.09276390785137 3.7446492521462322" fill="#3cffa8" stroke="none" /><path d="M 120.98425023603335 99.18683210126433 l 31.357383883352266 -1.2151407686936404 a52.38091922005571,52.38091922005571 0 0,0 0.027159021579149557,0.9012757056917029 l -31.373654599387063 0.6751949155769383" fill="#adff20" stroke="none" /><line stroke="#e1ed5e" stroke-width="0.3" x1="184.98032266829074" x2="189.97916517819016" y1="98.17113171792111" y2="98.06355123074" /><path d="M 185.9800911702706 98.14961562048488 a86.0,86.0 0 0,1 -9.607161424134198,41.387399972396054" fill="none" id="id28" stroke="none" /><text fill="#e1ed5e" style="font-size:6.75px; font-family:Arial;" text-anchor="middle"><textPath startOffset="21.466115282336823" xlink:href="#id28">April</textPath></text><path d="M 120.99513854157772 99.54816195383933 l 19.894418484732164 -0.4281493622841581 a40.89902506963789,40.89902506963789 0 0,0 0.009089307566303488,0.7039768877785836 l -19.89884079941618 0.08563621644511182" fill="#ffb310" stroke="none" /><path d="M 120.99824983174949 100.27111621757518 l 12.138960383236798 0.15673063473233198 a33.139972144846794,33.139972144846794 0 0,0 -0.01227431552205797,0.5703392113133116 l -12.134464005029733 -0.3656596618357584" fill="#ff3c05" stroke="none" /><path d="M 120.9904718944345 100.63252640178507 l 42.26702562825794 1.2736735871997225 a63.28621169916435,63.28621169916435 0 0,0 -0.04218438017693013,1.088591410286979 l -42.23883911522981 -2.0010422445007077" fill="#30ff33" stroke="none" /><path d="M 120.9764740272857 100.99374915477107 l 10.367202841977258 0.4911406487169367 a31.37883008356546,31.37883008356546 0 0,0 -0.03020384099376342,0.539309870736365 l -10.357212650095965 -0.6695222357887252" fill="#ff2003" stroke="none" /><path d="M 120.92983693683757 101.71520430193887 l 31.444727160776065 2.576901648217352 a52.550139275766014,52.550139275766014 0 0,0 -0.08164140521751362,0.9009061035066908 l -31.395711159281475 -3.1177891402726132" fill="#abff21" stroke="none" /><path d="M 120.89721153311464 102.0752229133903 l 31.277213242708907 3.1060215610781006 a52.43105849582173,52.43105849582173 0 0,0 -0.09691681050816763,0.8973292986129517 l -31.219114130699687 -3.643947181575844" fill="#adff20" stroke="none" /><line stroke="#e1ed5e" stroke-width="0.3" x1="174.80103733775053" x2="179.2010983576182" y1="140.37084112569926" y2="142.7455964860345" /><path d="M 175.68104954172406 140.8457921977663 a86.0,86.0 0 0,1 -30.038265399797805,32.042727171017184" fill="none" id="id29" stroke="none" /><text fill="#e1ed5e" style="font-size:6.75px; font-family:Arial;" text-anchor="middle"><textPath startOffset="22.206326154141568" xlink:href="#id29">May</textPath></text><line stroke="#e1ed5e" stroke-width="0.3" x1="143.8653032363475" x2="146.44561519142675" y1="172.8068346515853" y2="177.08958963109032" /><path d="M 144.38136562736335 173.6633856474863 a86.0,86.0 0 0,1 -40.68145358897372,12.25698825130547" fill="none" id="id30" stroke="none" /><text fill="#e1ed5e" style="font-size:6.75px; font-family:Arial;" text-anchor="middle"><textPath startOffset="21.466115282336833" xlink:href="#id30">June</textPath></text><line stroke="#e1ed5e" stroke-width="0.3" x1="102.19456741930631" x2="102.32365962044197" y1="184.97166512339345" y2="189.96999836594603" /><path d="M 102.22038585953345 185.97133177190398 a86.0,86.0 0 0,1 -42.740103519485714,-10.115201625700543" fill="none" id="id31" stroke="none" /><text fill="#e1ed5e" style="font-size:6.75px; font-family:Arial;" text-anchor="middle"><textPath startOffset="22.20632615414155" xlink:href="#id31">July</textPath></text><line stroke="#e1ed5e" stroke-width="0.3" x1="58.666819895761336" x2="56.23545636021788" y1="174.27360380694188" y2="178.64263932499728" /><path d="M 58.180547188652646 175.14741091055294 a86.0,86.0 0 0,1 -31.652253787137756,-30.449443065178592" fill="none" id="id32" stroke="none" /><text fill="#e1ed5e" style="font-size:6.75px; font-family:Arial;" text-anchor="middle"><textPath startOffset="22.20632615414155" xlink:href="#id32">August</textPath></text><line stroke="#e1ed5e" stroke-width="0.3" x1="26.63291911575756" x2="22.317208475507996" y1="142.92168965132927" y2="145.44649492493687" /><path d="M 25.769776987707644 143.4266507060508 a86.0,86.0 0 0,1 -11.730757126820373,-40.83630448921669" fill="none" id="id33" stroke="none" /><text fill="#e1ed5e" style="font-size:6.75px; font-family:Arial;" text-anchor="middle"><textPath startOffset="21.46611528233685" xlink:href="#id33">September</textPath></text><line stroke="#e1ed5e" stroke-width="0.3" x1="15.007084014347285" x2="10.007500721073583" y1="101.09737516637583" y2="101.16192664675087" /><path d="M 14.007167355692545 101.11028546245083 a86.0,86.0 0 0,1 10.666146001902534,-42.60595125391555" fill="none" id="id34" stroke="none" /><text fill="#e1ed5e" style="font-size:6.75px; font-family:Arial;" text-anchor="middle"><textPath startOffset="22.20632615414155" xlink:href="#id34">October</textPath></text><line stroke="#e1ed5e" stroke-width="0.3" x1="26.266209847984243" x2="21.928928074336255" y1="57.711370442889674" y2="55.22380399835377" /><path d="M 25.398753493254645 57.213857153982495 a86.0,86.0 0 0,1 29.58750427330803,-30.492523968695096" fill="none" id="id35" stroke="none" /><text fill="#e1ed5e" style="font-size:6.75px; font-family:Arial;" text-anchor="middle"><textPath startOffset="21.46611528233685" xlink:href="#id35">November</textPath></text><line stroke="#e1ed5e" stroke-width="0.3" x1="56.762969772571076" x2="54.21961505331055" y1="26.818313649435495" y2="22.513508569990535" /><path d="M 56.25429882871897 25.957352633546506 a86.0,86.0 0 0,1 42.265352541879196,-11.944610805530505" fill="none" id="id36" stroke="none" /><text fill="#e1ed5e" style="font-size:6.75px; font-family:Arial;" text-anchor="middle"><textPath startOffset="22.20632615414155" xlink:href="#id36">December</textPath></text></svg>