<?xml version="1.0" encoding="utf-8" ?>
<svg baseProfile="full" height="200mm" version="1.1" viewBox="0,0,200,200" width="200mm" xmlns="http://www.w3.org/2000/svg" xmlns:ev="http://www.w3.org/2001/xml-events" xmlns:xlink="http://www.w3.org/1999/xlink"><defs /><rect fill="#1a1a1a" height="200" width="200" x="0" y="0" /><text alignment-baseline="middle" fill="#e1ed5e" style="dominant-baseline: central; font-size:9.0px; font-family:Arial;" text-anchor="middle" x="100.0" y="100.0">2020</text><line stroke="#e1ed5e" stroke-width="0.3" x1="100.0" x2="100.0" y1="15.0" y2="10.0" /><path d="M 100.0 14.0 a86.0,86.0 0 0,1 42.35913384403234,11.155469271406648" fill="none" id="id13" stroke="none" /><text fill="#e1ed5e" style="font-size:6.75px; font-family:Arial;" text-anchor="middle"><textPath startOffset="22.145653131862478" xlink:href="#id13">January</textPath></text><path d="M 109.06512990194946 81.05736502329252 l 27.195389705848374 -56.82790493012246 a84.0,84.0 0 0,0 1.2953590029517317,0.6336249996111154 l -28.166908958062173 56.352686180414125" fill="#4dd2ff" stroke="none" /><line stroke="#e1ed5e" stroke-width="0.3" x1="143.13028292997686" x2="145.6673583964461" y1="26.7553504044142" y2="22.446841604673864" /><path d="M 143.63769802327073 25.89364864446614 a86.0,86.0 0 0,1 29.32050498858742,28.57503671076993" fill="none" id="id14" stroke="none" /><text fill="#e1ed5e" style="font-size:6.75px; font-family:Arial;" text-anchor="middle"><textPath startOffset="20.669276256404974" xlink:href="#id14">February</textPath></text><line stroke="#e1ed5e" stroke-width="0.3" x1="172.87174338648825" x2="177.1583165268699" y1="56.24261187166439" y2="53.66864786411523" /><path d="M 173.72905801456457 55.72781907015455 a86.0,86.0 0 0,1 12.242430191666344,42.057860355516425" fill="none" id="id15" stroke="none" /><text fill="#e1ed5e" style="font-size:6.75px; font-family:Arial;" text-anchor="middle"><textPath startOffset="22.145653131862474" xlink:href="#id15">March</textPath></text><line stroke="#e1ed5e" stroke-width="0.3" x1="184.99686870605535" x2="189.99668451229388" y1="99.2704041080226" y2="99.22748670261217" /><path d="M 185.99683186730306 99.26182062694052 a86.0,86.0 0 0,1 -10.086455211305974,41.156179273409016" fill="none" id="id16" stroke="none" /><text fill="#e1ed5e" style="font-size:6.75px; font-family:Arial;" text-anchor="middle"><textPath startOffset="21.40746469413373" xlink:href="#id16">April</textPath></text><path d="M 120.99922638620191 100.18025310272382 l 28.456369982373236 0.24426371177893882 a49.45741831815747,49.45741831815747 0 0,0 -0.014574791248342378,0.8489085219517915 l -28.447983759526224 -0.7327191496998013" fill="#eaff1a" stroke="none" /><path d="M 120.7213421655516 103.40968896794604 l 21.026557435799422 3.459912024517282 a42.309319764327796,42.309319764327796 0 0,0 -0.12407748473645452,0.7156459596514237 l -20.96406513357073 -3.820351017089294" fill="#ffa90f" stroke="none" /><path d="M 120.65975698304385 103.76489593502545 l 16.698218150730135 3.042971593976113 a37.97321906802357,37.97321906802357 0 0,0 -0.1223708823007126,0.6402961652102465 l -16.64352097614726 -3.3291703242196737" fill="#ff6409" stroke="none" /><path d="M 120.592083275326 104.11899336999214 l 20.702378311615913 4.141055466242762 a42.11247991430102,42.11247991430102 0 0,0 -0.14787955579731088,0.7076572074919274 l -20.628241044994237 -4.495829125020099" fill="#ffa60f" stroke="none" /><path d="M 120.43855184770803 104.8234425847677 l 32.896544350488824 7.763494894069075 a54.80021424745581,54.80021424745581 0 0,0 -0.22393056819100512,0.9137131347130899 l -32.75842625578152 -8.327063853390264" fill="#a1ff22" stroke="none" /><path d="M 120.05942366710727 106.21446072829308 l 26.860503035762278 8.321452501731486 a49.11997857525442,49.11997857525442 0 0,0 -0.2564420386720558,0.8033010336741983 l -26.713696281312966 -8.781322569097068" fill="#efff19" stroke="none" /><line stroke="#e1ed5e" stroke-width="0.3" x1="174.33088141563837" x2="178.70328620479359" y1="141.23008692659167" y2="143.65538615756765" /><path d="M 175.20536237346943 141.71514677278685 a86.0,86.0 0 0,1 -30.301960400862466,31.631185727798858" fill="none" id="id17" stroke="none" /><text fill="#e1ed5e" style="font-size:6.75px; font-family:Arial;" text-anchor="middle"><textPath startOffset="22.145653131862474" xlink:href="#id17">May</textPath></text><path d="M 115.89218393027572 113.72728997021213 l 22.04646833391222 19.043214259694373 a50.13229780396358,50.13229780396358 0 0,0 -0.5681396293179348,0.6464386062105337 l -21.716317640635697 -19.4188651437162" fill="#e1ff1b" stroke="none" /><path d="M 114.39649973595853 115.28858382429668 l 21.398118247072794 22.724060049503635 a52.2131762185324,52.2131762185324 0 0,0 -0.6578119986933926,0.6088609654276882 l -21.004876477065434 -23.0880387610637" fill="#c4ff1e" stroke="none" /><path d="M 114.13192950727249 115.5334660781643 l 19.074698638632395 20.966435199236226 a49.34493840385645,49.34493840385645 0 0,0 -0.631462414207735,0.5646575845750302 l -18.711971197601283 -21.290788313694645" fill="#ecff1a" stroke="none" /><path d="M 113.86319453409587 115.77377054828091 l 18.771374280768274 21.358378117865108 a49.43492233529727,49.43492233529727 0 0,0 -0.6422314871142206,0.5547442623554183 l -18.401963313891198 -21.677466512685243" fill="#ebff1a" stroke="none" /><path d="M 113.31354834802062 116.24036423190432 l 10.810572734654134 13.187140961739134 a38.051955008034284,38.051955008034284 0 0,0 -0.5087170026182007,0.4097864071220759 l -10.58260496168068 -13.370775662654614" fill="#ff6609" stroke="none" /><path d="M 113.03279911837588 116.46651593811092 l 10.481386114751674 13.242888956118664 a37.8888591322978,37.8888591322978 0 0,0 -0.5134663103889799,0.39927450863168623 l -10.252509859727462 -13.420864516371145" fill="#ff6309" stroke="none" /><path d="M 112.45986205192187 116.90419585922612 l 10.010601541447674 13.581303582666937 a37.87198714515265,37.87198714515265 0 0,0 -0.526635210536074,0.3812432794787625 l -9.775985320537632 -13.751147633518777" fill="#ff6309" stroke="none" /><path d="M 111.8722381534696 117.32195027204791 l 9.592539504289707 13.995801813274918 a37.96759507230851,37.96759507230851 0 0,0 -0.540773743721781,0.3638567087413966 l -9.350869472470924 -14.158408196073436" fill="#ff6409" stroke="none" /><path d="M 110.96478420261333 117.91015095944535 l 8.947428351730798 14.614951787206744 a38.13631494376004,38.13631494376004 0 0,0 -0.5612707492726359,0.33702695831973845 l -8.695224845900725 -14.766392746062404" fill="#ff6709" stroke="none" /><line stroke="#e1ed5e" stroke-width="0.3" x1="143.1302829299769" x2="145.66735839644613" y1="173.24464959558577" y2="177.55315839532614" /><path d="M 143.63769802327073 174.10635135553383 a86.0,86.0 0 0,1 -40.68552437913181,11.842963189579606" fill="none" id="id18" stroke="none" /><text fill="#e1ed5e" style="font-size:6.75px; font-family:Arial;" text-anchor="middle"><textPath startOffset="21.407464694133747" xlink:href="#id18">June</textPath></text><path d="M 110.34350942703117 118.27599006163325 l 8.337965553123674 14.73238620394111 a37.92822710230316,37.92822710230316 0 0,0 -0.569385429854124,0.3158284998175894 l -8.083835935113454 -14.873347619191843" fill="#ff6409" stroke="none" /><path d="M 110.02825361518725 118.45085714620011 l 8.24766118163901 15.174767620776796 a38.27129084092127,38.27129084092127 0 0,0 -0.579921560946037,0.3087755669919447 l -7.9859508049064205 -15.314113655491308" fill="#ff6909" stroke="none" /><path d="M 109.06512990194946 118.94263497670748 l 7.540517802746391 15.756782066859518 a38.468130690948044,38.468130690948044 0 0,0 -0.5981085155647824,0.2799449855537093 l -7.268920573310102 -15.883903283983761" fill="#ff6c0a" stroke="none" /><path d="M 108.73861861582097 119.09545874513695 l 4.732053251523833 10.340390354222524 a32.371719335832886,32.371719335832886 0 0,0 -0.5072904266639023,0.22690455537303209 l -4.553849422004304 -10.420098660505408" fill="#ff0600" stroke="none" /><path d="M 108.4095320186766 119.2426549942271 l 6.830774133006457 15.630147990758115 a38.05757900374933,38.05757900374933 0 0,0 -0.6008837295987393,0.25648153341050184 l -6.561455328237287 -15.74510417382802" fill="#ff6609" stroke="none" /><path d="M 106.72888874123015 119.89276391827305 l 5.510696778436472 16.291395838799946 a38.198178896625606,38.198178896625606 0 0,0 -0.6229527493027823,0.20477694210966405 l -5.230221291485955 -16.383593702311632" fill="#ff6809" stroke="none" /><path d="M 106.38641147887787 120.00534299687104 l 5.136152563221818 16.0889247508312 a37.8888591322978,37.8888591322978 0 0,0 -0.6213039786673452,0.19248156077842446 l -4.859207951682849 -16.17472289941627" fill="#ff6309" stroke="none" /><path d="M 104.64783097203109 120.47920084513623 l 2.4421650688604664 10.76062990309515 a32.034279592929835,32.034279592929835 0 0,0 -0.5373179632933589,0.11710594924219013 l -2.2570846889479714 -10.800967310471059" fill="#ff0000" stroke="none" /><path d="M 103.58742460773223 120.69131181640829 l 2.077132298317378 11.980347120266398 a33.159078735940014,33.159078735940014 0 0,0 -0.561687156400398,0.09242540783865175 l -1.8711676388639076 -12.014238526600721" fill="#ff1402" stroke="none" /><path d="M 103.2317021107853 120.74984581791261 l 2.2848670520817365 14.67048552739403 a35.84734868773433,35.84734868773433 0 0,0 -0.6088499670210532,0.08947997825198807 l -2.032691979452998 -14.7075465789449" fill="#ff4106" stroke="none" /><path d="M 102.15924093988457 120.88869738790638 l 1.159999283719453 11.2219408034655 a32.28173540439207,32.28173540439207 0 0,0 -0.5517109014917012,0.05224759598292597 l -0.9671888188427366 -11.24020015495361" fill="#ff0400" stroke="none" /><line stroke="#e1ed5e" stroke-width="0.3" x1="101.45913802915013" x2="101.54496967792366" y1="184.9874750549273" y2="189.98673829345242" /><path d="M 101.47630435890484 185.9873277026323 a86.0,86.0 0 0,1 -42.54439059252881,-10.42667462771756" fill="none" id="id19" stroke="none" /><text fill="#e1ed5e" style="font-size:6.75px; font-family:Arial;" text-anchor="middle"><textPath startOffset="22.145653131862474" xlink:href="#id19">July</textPath></text><path d="M 97.48249496171623 120.84855314841334 l -1.7812662857915695 14.751440122685604 a35.858596679164435,35.858596679164435 0 0,0 -0.6104877899368766,-0.07903986679867932 l 2.03423189761924 -14.718688659686528" fill="#ff4106" stroke="none" /><path d="M 97.12497278360702 120.80226474461374 l -1.9195079942334463 13.88860364443547 a35.02062131762185,35.02062131762185 0 0,0 -0.5948084004769539,-0.08741635151790551 l 2.157641500318085 -13.853606219618683" fill="#ff3304" stroke="none" /><path d="M 96.05791012581884 120.62667999033965 l -3.2020242604155036 16.754343977155912 a38.05757900374933,38.05757900374933 0 0,0 -0.6406422823813622,-0.1281463987098062 l 3.489163028327824 -16.696908181783247" fill="#ff6609" stroke="none" /><path d="M 94.30408787586889 120.21278271476187 l -3.5679535239268008 12.661408347570436 a34.154525977504015,34.154525977504015 0 0,0 -0.5629641523316823,-0.16387066001628833 l 3.78477768864009 -12.598293993251632" fill="#ff2503" stroke="none" /><path d="M 93.61358852112213 120.00534299687104 l -5.1943041406941886 16.2710837390191 a38.08007498660953,38.08007498660953 0 0,0 -0.6210266586467938,-0.20414379785402034 l 5.472853536988726 -16.17951901976306" fill="#ff6609" stroke="none" /><path d="M 92.93061703081489 119.77432235084164 l -7.597598782897656 21.251835991946315 a43.5690948044992,43.5690948044992 0 0,0 -0.7021073492596522,-0.25782354384827255 l 7.961295283811427 -21.118281599089325" fill="#ffbd11" stroke="none" /><path d="M 92.59220618246901 119.65005319985036 l -7.939472645355924 21.06039445790069 a43.507230851633636,43.507230851633636 0 0,0 -0.6965875140198354,-0.26945501482702683 l 8.299832421869286 -20.92099955493562" fill="#ffbc11" stroke="none" /><line stroke="#e1ed5e" stroke-width="0.3" x1="58.13341422392154" x2="55.67067388415222" y1="173.97424548756322" y2="178.32567169271397" /><path d="M 57.64086615596768 174.84453072859336 a86.0,86.0 0 0,1 -31.369924170532247,-30.572349798747897" fill="none" id="id20" stroke="none" /><text fill="#e1ed5e" style="font-size:6.75px; font-family:Arial;" text-anchor="middle"><textPath startOffset="22.145653131862474" xlink:href="#id20">August</textPath></text><path d="M 89.34428304082925 118.09573695890944 l -6.417971998172203 10.899119555593817 a33.648366363149435,33.648366363149435 0 0,0 -0.49521942086687537,-0.29736503342088866 l 6.604124175596506 -10.78734052163701" fill="#ff1c02" stroke="none" /><path d="M 87.83215693770417 117.11559508785305 l -7.592681932284221 10.680057995366257 a34.10391001606856,34.10391001606856 0 0,0 -0.47423758786618736,-0.3433114414552039 l 7.774900530524363 -10.548145782537986" fill="#ff2403" stroke="none" /><path d="M 87.54013794807813 116.9041958592261 l -11.512191772664828 15.618499120066977 a40.40278521692555,40.40278521692555 0 0,0 -0.5547629693800361,-0.4163044745943538 l 11.778607730955631 -15.418575618208607" fill="#ff8b0c" stroke="none" /><path d="M 87.2517909369889 116.68781488649013 l -10.580262422675794 13.849903142269119 a38.428762720942686,38.428762720942686 0 0,0 -0.5207830338263215,-0.40496403703136585 l 10.816455401137343 -13.66623805361696" fill="#ff6c09" stroke="none" /><path d="M 85.60350026404147 115.28858382429668 l -19.327705724788455 20.525353698767884 a49.19309051955008,49.19309051955008 0 0,0 -0.609824522264621,-0.5841980975407258 l 19.67720273291839 -20.190543470921575" fill="#eeff19" stroke="none" /><path d="M 84.83555147118756 114.52719865689866 l -10.498151967589758 10.056992107145968 a35.538028923406536,35.538028923406536 0 0,0 -0.4182388823301065,-0.4441551994137029 l 10.669246683656118 -9.875295447787774" fill="#ff3c05" stroke="none" /><path d="M 84.1078160697243 113.72728997021213 l -10.048592999298597 8.679735302536377 a34.27825388323514,34.27825388323514 0 0,0 -0.3808239516401048,-0.44860965746383674 l 10.196111514445814 -8.505958862622986" fill="#ff2703" stroke="none" /><path d="M 83.20337586046588 112.60449989151573 l -22.558936813005776 16.928646747710594 a49.20433851098018,49.20433851098018 0 0,0 -0.5011766016767722,-0.6799423139278445 l 22.84621543426638 -16.53889812451387" fill="#eeff19" stroke="none" /><path d="M 82.37810715431573 111.42229804090323 l -12.576953517340273 8.152229319498417 a35.987948580610606,35.987948580610606 0 0,0 -0.33157292214406275,-0.5212877064089926 l 12.715044131110227 -7.935127938410752" fill="#ff4406" stroke="none" /><line stroke="#e1ed5e" stroke-width="0.3" x1="26.387840678322732" x2="22.057713659400548" y1="142.50000000000003" y2="145.00000000000006" /><path d="M 25.521815274538298 143.00000000000003 a86.0,86.0 0 0,1 -11.493303480769221,-40.785679425670985" fill="none" id="id21" stroke="none" /><text fill="#e1ed5e" style="font-size:6.75px; font-family:Arial;" text-anchor="middle"><textPath startOffset="21.40746469413373" xlink:href="#id21">September</textPath></text><path d="M 81.81346652052679 110.50000000000001 l -17.660516978192245 10.196304231387261 a41.392608462774504,41.392608462774504 0 0,0 -0.3499974379867851,-0.6184119368158718 l 17.83294778120041 -9.891635524472267" fill="#ff9b0e" stroke="none" /><line stroke="#e1ed5e" stroke-width="0.3" x1="15.003131293944662" x2="10.003315487706104" y1="100.72959589197737" y2="100.7725132973878" /><path d="M 14.003168132696942 100.73817937305945 a86.0,86.0 0 0,1 10.791469493833604,-42.45332614584628" fill="none" id="id22" stroke="none" /><text fill="#e1ed5e" style="font-size:6.75px; font-family:Arial;" text-anchor="middle"><textPath startOffset="22.145653131862435" xlink:href="#id22">October</textPath></text><path d="M 79.00077361379809 100.18025310272382 l -17.489982340944817 0.15013046316847473 a38.49062667380825,38.49062667380825 0 0,0 0.0,-0.6607671317845781 l 17.489982340944817 0.1501304631684683" fill="#ff6d0a" stroke="none" /><path d="M 79.34024301695615 96.23510406497455 l -19.442524380936273 -3.543075606770063 a40.7627209426888,40.7627209426888 0 0,0 0.13136021251711563,-0.6873321394318522 l 19.378837876137 3.87631031123523" fill="#ff910d" stroke="none" /><path d="M 79.73907114497095 94.47779374421319 l -16.289048854525234 -4.439652699483667 a37.883235136582755,37.883235136582755 0 0,0 0.17639427889277326,-0.6259610671101509 l 16.21043608355788 4.718621690496831" fill="#ff6309" stroke="none" /><path d="M 79.83685265289637 94.1308016681162 l -16.29683414396325 -4.74377090670201 a37.97321906802357,37.97321906802357 0 0,0 0.18755819157351164,-0.6243202197523929 l 16.212999632386108 5.022828730045127" fill="#ff6409" stroke="none" /><path d="M 80.83023694016515 91.42560881287825 l -25.725678278744635 -11.506768676664985 a49.18184252811998,49.18184252811998 0 0,0 0.3513352583938447,-0.7677309455095604 l 25.52435855549574 11.946688604389216" fill="#eeff19" stroke="none" /><path d="M 80.9802524753101 91.09779779509293 l -20.364475255412483 -9.531602682168844 a43.48473486877343,43.48473486877343 0 0,0 0.32224412893787213,-0.6733662919209281 l 20.197851868514707 9.879781476154859" fill="#ffbc11" stroke="none" /><path d="M 81.46374523516351 90.13048839642627 l -22.954376548635228 -12.221912601747434 a47.00535618639529,47.00535618639529 0 0,0 0.38534241240356176,-0.7089866368021236 l 22.741188786616316 12.614154072024178" fill="#fff016" stroke="none" /><line stroke="#e1ed5e" stroke-width="0.3" x1="26.387840678322718" x2="22.05771365940052" y1="57.49999999999999" y2="54.99999999999999" /><path d="M 25.521815274538284 56.99999999999999 a86.0,86.0 0 0,1 29.574782752854787,-30.34633250058573" fill="none" id="id23" stroke="none" /><text fill="#e1ed5e" style="font-size:6.75px; font-family:Arial;" text-anchor="middle"><textPath startOffset="21.40746469413373" xlink:href="#id23">November</textPath></text><path d="M 81.81346652052679 89.5 l -19.0583571251148 -11.003347616497054 a43.006695232994105,43.006695232994105 0 0,0 0.3746216761214722,-0.6361895061754281 l 18.86666173886355 11.328888290966056" fill="#ffb410" stroke="none" /><path d="M 83.2033758604659 87.39550010848427 l -35.99083817365088 -27.008195937872898 a65.99758971612212,65.99758971612212 0 0,0 0.6877829527978603,-0.9003299633417844 l 35.52190324349871 27.622046814455565" fill="#32ff4c" stroke="none" /><path d="M 83.42222388311158 87.10902102172516 l -20.644525694571808 -16.053308047396374 a47.15158007498661,47.15158007498661 0 0,0 0.5023519671936656,-0.6347053000051683 l 20.36590729673658 16.405333291316225" fill="#fff316" stroke="none" /><path d="M 83.8745106332314 86.54754324733833 l -17.40378204287024 -14.518853967120126 a43.66470273165506,43.66470273165506 0 0,0 0.48510535857813686,-0.5714528926249711 l 17.15198212078499 14.815473642194654" fill="#ffbe11" stroke="none" /><path d="M 84.34580500576568 86.00192230759919 l -20.798195331118485 -18.597874513122783 a48.90064274236744,48.90064274236744 0 0,0 0.5649242076004222,-0.6209506643080251 l 20.475873422676198 18.952162752988464" fill="#f2ff19" stroke="none" /><path d="M 84.58840730492382 85.73525988315684 l -17.987070424515792 -16.64856385356253 a45.50937332619175,45.50937332619175 0 0,0 0.5355893394231628,-0.5687773181920235 l 17.69862525135636 16.954882631699064" fill="#ffda14" stroke="none" /><path d="M 88.72937992617638 82.28071324371311 l -12.308941794604376 -19.35170096200802 a43.93465452597751,43.93465452597751 0 0,0 0.6398473020607592,-0.39931203938776666 l 11.974930363753918 19.560148798237325" fill="#ffc212" stroke="none" /><line stroke="#e1ed5e" stroke-width="0.3" x1="56.869717070023135" x2="54.33264160355391" y1="26.7553504044142" y2="22.446841604673864" /><path d="M 56.362301976729285 25.89364864446614 a86.0,86.0 0 0,1 42.16139366436587,-11.88097634709845" fill="none" id="id24" stroke="none" /><text fill="#e1ed5e" style="font-size:6.75px; font-family:Arial;" text-anchor="middle"><textPath startOffset="22.145653131862474" xlink:href="#id24">December</textPath></text><path d="M 89.65649057296885 81.72400993836675 l -12.210548889757186 -21.574869896004127 a45.7905731119443,45.7905731119443 0 0,0 0.6874163952953971,-0.38129828670147964 l 11.838388306305687 21.78130109813875" fill="#ffde14" stroke="none" /><path d="M 90.28995756902619 81.37971332152246 l -7.8637301315652985 -15.079739398959846 a38.00696304231387,38.00696304231387 0 0,0 0.5810952961059482,-0.2967113986596112 l 7.603707613745769 15.21250874929229" fill="#ff6509" stroke="none" /><path d="M 91.5904679813234 80.7573450057729 l -6.810504773561335 -15.58376772965794 a38.00696304231387,38.00696304231387 0 0,0 0.6000845640059523,-0.2561404171402647 l 6.5419851343849516 15.698382796457608" fill="#ff6509" stroke="none" /><path d="M 91.92203290615298 80.6158196554323 l -6.537658424639989 -15.688000268153077 a37.995715050883774,37.995715050883774 0 0,0 0.6042142635772313,-0.24572868091866848 l 6.267389699872317 15.797916205651036" fill="#ff6509" stroke="none" /><path d="M 92.25597844496254 80.48000691201159 l -6.248724409568262 -15.750867481014746 a37.94509908944831,37.94509908944831 0 0,0 0.6075330864906687,-0.23500684915175155 l 5.977419060584064 15.855814218304538" fill="#ff6409" stroke="none" /><path d="M 92.592206182469 80.34994680014964 l -5.9575802983517905 -15.80318954449669 a37.8888591322978,37.8888591322978 0 0,0 0.6105714743722941,-0.22421030268565628 l 5.685419672325369 15.903130696191068" fill="#ff6309" stroke="none" /><path d="M 95.70440661134978 79.44403061299748 l -3.459252629799459 -16.553776097138872 a37.911355115158,37.911355115158 0 0,0 0.6381808224519779,-0.12765403778672182 l 3.174575321816504 16.61071953158846" fill="#ff6309" stroke="none" /><path d="M 98.1996594967304 79.07731436759882 l -1.4575332997814616 -16.938746295326403 a38.00133904659882,38.00133904659882 0 0,0 0.6504218806384193,-0.050346767116878015 l 1.1665424243678253 16.961270829438334" fill="#ff6509" stroke="none" /></svg>